<mxfile host="app.diagrams.net" agent="Mozilla/5.0 (Macintosh; Intel Mac OS X 10_15_7) AppleWebKit/537.36 (KHTML, like Gecko) Chrome/131.0.0.0 Safari/537.36 Edg/131.0.0.0" version="25.0.3">
  <diagram id="C5RBs43oDa-KdzZeNtuy" name="Page-1">
    <mxGraphModel dx="1852" dy="1931" grid="1" gridSize="10" guides="1" tooltips="1" connect="1" arrows="1" fold="1" page="1" pageScale="1" pageWidth="827" pageHeight="1169" math="0" shadow="0">
      <root>
        <mxCell id="WIyWlLk6GJQsqaUBKTNV-0" />
        <mxCell id="WIyWlLk6GJQsqaUBKTNV-1" parent="WIyWlLk6GJQsqaUBKTNV-0" />
        <mxCell id="SESf0UpDklWQRaEV1_xz-36" style="edgeStyle=orthogonalEdgeStyle;rounded=0;orthogonalLoop=1;jettySize=auto;html=1;entryX=0.5;entryY=0;entryDx=0;entryDy=0;" edge="1" parent="WIyWlLk6GJQsqaUBKTNV-1" source="SESf0UpDklWQRaEV1_xz-0" target="SESf0UpDklWQRaEV1_xz-1">
          <mxGeometry relative="1" as="geometry" />
        </mxCell>
        <mxCell id="SESf0UpDklWQRaEV1_xz-0" value="Bắt đầu" style="ellipse;whiteSpace=wrap;html=1;" vertex="1" parent="WIyWlLk6GJQsqaUBKTNV-1">
          <mxGeometry x="160" y="-20" width="120" height="80" as="geometry" />
        </mxCell>
        <mxCell id="SESf0UpDklWQRaEV1_xz-37" style="edgeStyle=orthogonalEdgeStyle;rounded=0;orthogonalLoop=1;jettySize=auto;html=1;entryX=0.5;entryY=0;entryDx=0;entryDy=0;" edge="1" parent="WIyWlLk6GJQsqaUBKTNV-1" source="SESf0UpDklWQRaEV1_xz-1" target="SESf0UpDklWQRaEV1_xz-3">
          <mxGeometry relative="1" as="geometry" />
        </mxCell>
        <mxCell id="SESf0UpDklWQRaEV1_xz-1" value="nhập mảng A các điểm" style="shape=parallelogram;perimeter=parallelogramPerimeter;whiteSpace=wrap;html=1;fixedSize=1;" vertex="1" parent="WIyWlLk6GJQsqaUBKTNV-1">
          <mxGeometry x="140" y="100" width="160" height="80" as="geometry" />
        </mxCell>
        <mxCell id="SESf0UpDklWQRaEV1_xz-38" style="edgeStyle=orthogonalEdgeStyle;rounded=0;orthogonalLoop=1;jettySize=auto;html=1;" edge="1" parent="WIyWlLk6GJQsqaUBKTNV-1" source="SESf0UpDklWQRaEV1_xz-3" target="SESf0UpDklWQRaEV1_xz-4">
          <mxGeometry relative="1" as="geometry" />
        </mxCell>
        <mxCell id="SESf0UpDklWQRaEV1_xz-3" value="points_sorted_by_x = mảng sắp xếp theo x" style="rounded=1;whiteSpace=wrap;html=1;fontSize=12;glass=0;strokeWidth=1;shadow=0;" vertex="1" parent="WIyWlLk6GJQsqaUBKTNV-1">
          <mxGeometry x="125" y="250" width="190" height="50" as="geometry" />
        </mxCell>
        <mxCell id="SESf0UpDklWQRaEV1_xz-15" style="edgeStyle=orthogonalEdgeStyle;rounded=0;orthogonalLoop=1;jettySize=auto;html=1;entryX=0.5;entryY=0;entryDx=0;entryDy=0;" edge="1" parent="WIyWlLk6GJQsqaUBKTNV-1" source="SESf0UpDklWQRaEV1_xz-4" target="SESf0UpDklWQRaEV1_xz-5">
          <mxGeometry relative="1" as="geometry" />
        </mxCell>
        <mxCell id="SESf0UpDklWQRaEV1_xz-4" value="points_sorted_by_y = mảng sắp xếp theo y" style="rounded=1;whiteSpace=wrap;html=1;fontSize=12;glass=0;strokeWidth=1;shadow=0;" vertex="1" parent="WIyWlLk6GJQsqaUBKTNV-1">
          <mxGeometry x="135" y="340" width="170" height="50" as="geometry" />
        </mxCell>
        <mxCell id="SESf0UpDklWQRaEV1_xz-17" style="edgeStyle=orthogonalEdgeStyle;rounded=0;orthogonalLoop=1;jettySize=auto;html=1;entryX=0;entryY=0.75;entryDx=0;entryDy=0;" edge="1" parent="WIyWlLk6GJQsqaUBKTNV-1" source="SESf0UpDklWQRaEV1_xz-5" target="SESf0UpDklWQRaEV1_xz-6">
          <mxGeometry relative="1" as="geometry" />
        </mxCell>
        <mxCell id="SESf0UpDklWQRaEV1_xz-5" value="len(points_sorted_by_x) &amp;lt;= 3" style="rhombus;whiteSpace=wrap;html=1;" vertex="1" parent="WIyWlLk6GJQsqaUBKTNV-1">
          <mxGeometry x="112.5" y="440" width="215" height="90" as="geometry" />
        </mxCell>
        <mxCell id="SESf0UpDklWQRaEV1_xz-6" value="Tìm khoảng cách theo brute-force trả về cặp điểm có khoảng cách nhỏ nhất và khoảng cách của chúng" style="rounded=1;whiteSpace=wrap;html=1;fontSize=12;glass=0;strokeWidth=1;shadow=0;" vertex="1" parent="WIyWlLk6GJQsqaUBKTNV-1">
          <mxGeometry x="380" y="530" width="210" height="55" as="geometry" />
        </mxCell>
        <mxCell id="SESf0UpDklWQRaEV1_xz-18" style="edgeStyle=orthogonalEdgeStyle;rounded=0;orthogonalLoop=1;jettySize=auto;html=1;" edge="1" parent="WIyWlLk6GJQsqaUBKTNV-1" source="SESf0UpDklWQRaEV1_xz-7" target="SESf0UpDklWQRaEV1_xz-8">
          <mxGeometry relative="1" as="geometry" />
        </mxCell>
        <mxCell id="SESf0UpDklWQRaEV1_xz-20" style="edgeStyle=orthogonalEdgeStyle;rounded=0;orthogonalLoop=1;jettySize=auto;html=1;" edge="1" parent="WIyWlLk6GJQsqaUBKTNV-1" source="SESf0UpDklWQRaEV1_xz-7" target="SESf0UpDklWQRaEV1_xz-10">
          <mxGeometry relative="1" as="geometry" />
        </mxCell>
        <mxCell id="SESf0UpDklWQRaEV1_xz-7" value="mid = len(A) // 2" style="rounded=1;whiteSpace=wrap;html=1;fontSize=12;glass=0;strokeWidth=1;shadow=0;" vertex="1" parent="WIyWlLk6GJQsqaUBKTNV-1">
          <mxGeometry x="145" y="570" width="170" height="50" as="geometry" />
        </mxCell>
        <mxCell id="SESf0UpDklWQRaEV1_xz-19" style="edgeStyle=orthogonalEdgeStyle;rounded=0;orthogonalLoop=1;jettySize=auto;html=1;entryX=0.5;entryY=0;entryDx=0;entryDy=0;" edge="1" parent="WIyWlLk6GJQsqaUBKTNV-1" source="SESf0UpDklWQRaEV1_xz-8" target="SESf0UpDklWQRaEV1_xz-12">
          <mxGeometry relative="1" as="geometry" />
        </mxCell>
        <mxCell id="SESf0UpDklWQRaEV1_xz-8" value="left_sort_by_x = poins_sort_by_x[0:mid]" style="rounded=1;whiteSpace=wrap;html=1;fontSize=12;glass=0;strokeWidth=1;shadow=0;" vertex="1" parent="WIyWlLk6GJQsqaUBKTNV-1">
          <mxGeometry x="10" y="670" width="170" height="50" as="geometry" />
        </mxCell>
        <mxCell id="SESf0UpDklWQRaEV1_xz-10" value="right_sort_by_x = poins_sort_by_x[mid:len(A)]" style="rounded=1;whiteSpace=wrap;html=1;fontSize=12;glass=0;strokeWidth=1;shadow=0;" vertex="1" parent="WIyWlLk6GJQsqaUBKTNV-1">
          <mxGeometry x="290" y="670" width="170" height="50" as="geometry" />
        </mxCell>
        <mxCell id="SESf0UpDklWQRaEV1_xz-11" style="edgeStyle=orthogonalEdgeStyle;rounded=0;orthogonalLoop=1;jettySize=auto;html=1;entryX=0.441;entryY=0.08;entryDx=0;entryDy=0;entryPerimeter=0;" edge="1" parent="WIyWlLk6GJQsqaUBKTNV-1" source="SESf0UpDklWQRaEV1_xz-5" target="SESf0UpDklWQRaEV1_xz-7">
          <mxGeometry relative="1" as="geometry" />
        </mxCell>
        <mxCell id="SESf0UpDklWQRaEV1_xz-16" style="edgeStyle=orthogonalEdgeStyle;rounded=0;orthogonalLoop=1;jettySize=auto;html=1;" edge="1" parent="WIyWlLk6GJQsqaUBKTNV-1" source="SESf0UpDklWQRaEV1_xz-24">
          <mxGeometry relative="1" as="geometry">
            <mxPoint x="220" y="420" as="targetPoint" />
            <Array as="points">
              <mxPoint x="-40" y="870" />
              <mxPoint x="-40" y="420" />
            </Array>
          </mxGeometry>
        </mxCell>
        <mxCell id="SESf0UpDklWQRaEV1_xz-25" style="edgeStyle=orthogonalEdgeStyle;rounded=0;orthogonalLoop=1;jettySize=auto;html=1;entryX=0.5;entryY=0;entryDx=0;entryDy=0;" edge="1" parent="WIyWlLk6GJQsqaUBKTNV-1" source="SESf0UpDklWQRaEV1_xz-12" target="SESf0UpDklWQRaEV1_xz-24">
          <mxGeometry relative="1" as="geometry" />
        </mxCell>
        <mxCell id="SESf0UpDklWQRaEV1_xz-12" value="tạo mảng sắp xếp các điểm theo trục y" style="rounded=1;whiteSpace=wrap;html=1;fontSize=12;glass=0;strokeWidth=1;shadow=0;" vertex="1" parent="WIyWlLk6GJQsqaUBKTNV-1">
          <mxGeometry x="10" y="750" width="170" height="50" as="geometry" />
        </mxCell>
        <mxCell id="SESf0UpDklWQRaEV1_xz-22" style="edgeStyle=orthogonalEdgeStyle;rounded=0;orthogonalLoop=1;jettySize=auto;html=1;exitX=1;exitY=0.5;exitDx=0;exitDy=0;" edge="1" parent="WIyWlLk6GJQsqaUBKTNV-1" source="SESf0UpDklWQRaEV1_xz-23">
          <mxGeometry relative="1" as="geometry">
            <mxPoint x="220" y="420" as="targetPoint" />
            <Array as="points">
              <mxPoint x="450" y="860" />
              <mxPoint x="600" y="860" />
              <mxPoint x="600" y="420" />
            </Array>
          </mxGeometry>
        </mxCell>
        <mxCell id="SESf0UpDklWQRaEV1_xz-26" style="edgeStyle=orthogonalEdgeStyle;rounded=0;orthogonalLoop=1;jettySize=auto;html=1;" edge="1" parent="WIyWlLk6GJQsqaUBKTNV-1" source="SESf0UpDklWQRaEV1_xz-13" target="SESf0UpDklWQRaEV1_xz-23">
          <mxGeometry relative="1" as="geometry" />
        </mxCell>
        <mxCell id="SESf0UpDklWQRaEV1_xz-13" value="tạo mảng sắp xếp các điểm theo trục y" style="rounded=1;whiteSpace=wrap;html=1;fontSize=12;glass=0;strokeWidth=1;shadow=0;" vertex="1" parent="WIyWlLk6GJQsqaUBKTNV-1">
          <mxGeometry x="280" y="760" width="170" height="50" as="geometry" />
        </mxCell>
        <mxCell id="SESf0UpDklWQRaEV1_xz-21" style="edgeStyle=orthogonalEdgeStyle;rounded=0;orthogonalLoop=1;jettySize=auto;html=1;entryX=0.565;entryY=0.06;entryDx=0;entryDy=0;entryPerimeter=0;" edge="1" parent="WIyWlLk6GJQsqaUBKTNV-1" source="SESf0UpDklWQRaEV1_xz-10" target="SESf0UpDklWQRaEV1_xz-13">
          <mxGeometry relative="1" as="geometry" />
        </mxCell>
        <mxCell id="SESf0UpDklWQRaEV1_xz-32" style="edgeStyle=orthogonalEdgeStyle;rounded=0;orthogonalLoop=1;jettySize=auto;html=1;" edge="1" parent="WIyWlLk6GJQsqaUBKTNV-1" source="SESf0UpDklWQRaEV1_xz-23" target="SESf0UpDklWQRaEV1_xz-27">
          <mxGeometry relative="1" as="geometry" />
        </mxCell>
        <mxCell id="SESf0UpDklWQRaEV1_xz-23" value="tìm cặp phải nhỏ nhất" style="rounded=1;whiteSpace=wrap;html=1;fontSize=12;glass=0;strokeWidth=1;shadow=0;" vertex="1" parent="WIyWlLk6GJQsqaUBKTNV-1">
          <mxGeometry x="280" y="840" width="170" height="50" as="geometry" />
        </mxCell>
        <mxCell id="SESf0UpDklWQRaEV1_xz-31" style="edgeStyle=orthogonalEdgeStyle;rounded=0;orthogonalLoop=1;jettySize=auto;html=1;" edge="1" parent="WIyWlLk6GJQsqaUBKTNV-1" source="SESf0UpDklWQRaEV1_xz-24" target="SESf0UpDklWQRaEV1_xz-27">
          <mxGeometry relative="1" as="geometry" />
        </mxCell>
        <mxCell id="SESf0UpDklWQRaEV1_xz-24" value="tìm cặp trái nhỏ nhất" style="rounded=1;whiteSpace=wrap;html=1;fontSize=12;glass=0;strokeWidth=1;shadow=0;" vertex="1" parent="WIyWlLk6GJQsqaUBKTNV-1">
          <mxGeometry x="10" y="840" width="170" height="50" as="geometry" />
        </mxCell>
        <mxCell id="SESf0UpDklWQRaEV1_xz-27" value="so sánh 2 khoảng cách của 2 cặp trái và phải và trả về cái nhỏ hơn" style="rounded=1;whiteSpace=wrap;html=1;fontSize=12;glass=0;strokeWidth=1;shadow=0;" vertex="1" parent="WIyWlLk6GJQsqaUBKTNV-1">
          <mxGeometry x="157.5" y="960" width="170" height="50" as="geometry" />
        </mxCell>
        <mxCell id="SESf0UpDklWQRaEV1_xz-33" style="edgeStyle=orthogonalEdgeStyle;rounded=0;orthogonalLoop=1;jettySize=auto;html=1;entryX=0.5;entryY=0;entryDx=0;entryDy=0;" edge="1" parent="WIyWlLk6GJQsqaUBKTNV-1" source="SESf0UpDklWQRaEV1_xz-28" target="SESf0UpDklWQRaEV1_xz-35">
          <mxGeometry relative="1" as="geometry">
            <mxPoint x="245" y="1170" as="targetPoint" />
          </mxGeometry>
        </mxCell>
        <mxCell id="SESf0UpDklWQRaEV1_xz-28" value="tìm cặp gần nhất giữa đường 2 phần" style="rounded=1;whiteSpace=wrap;html=1;fontSize=12;glass=0;strokeWidth=1;shadow=0;" vertex="1" parent="WIyWlLk6GJQsqaUBKTNV-1">
          <mxGeometry x="160" y="1060" width="170" height="50" as="geometry" />
        </mxCell>
        <mxCell id="SESf0UpDklWQRaEV1_xz-30" style="edgeStyle=orthogonalEdgeStyle;rounded=0;orthogonalLoop=1;jettySize=auto;html=1;entryX=0.459;entryY=0.04;entryDx=0;entryDy=0;entryPerimeter=0;" edge="1" parent="WIyWlLk6GJQsqaUBKTNV-1" source="SESf0UpDklWQRaEV1_xz-27" target="SESf0UpDklWQRaEV1_xz-28">
          <mxGeometry relative="1" as="geometry" />
        </mxCell>
        <mxCell id="SESf0UpDklWQRaEV1_xz-35" value="xuất kết quả nhỏ hơn" style="shape=parallelogram;perimeter=parallelogramPerimeter;whiteSpace=wrap;html=1;fixedSize=1;" vertex="1" parent="WIyWlLk6GJQsqaUBKTNV-1">
          <mxGeometry x="162.5" y="1180" width="160" height="80" as="geometry" />
        </mxCell>
      </root>
    </mxGraphModel>
  </diagram>
</mxfile>
